<svg width="1920" height="1080" viewBox="0 0 1920 1080" fill="none" xmlns="http://www.w3.org/2000/svg">
<path d="M991.481 625.955L937.697 452.109H1036.84L1057.22 533.6H1061.83L1084.38 452.109H1166.14L1188.69 533.6H1193.3L1213.68 452.109H1312.82L1259.04 625.955H1151.47L1127.84 541.477H1122.68L1099.05 625.955H991.481Z" fill="#020001"/>
<path d="M789.845 631.387C689.613 631.387 641.262 601.236 641.262 539.031C641.262 477.914 689.613 448.306 789.845 448.306C889.535 448.306 937.886 477.914 937.886 539.031C937.886 601.236 889.807 631.387 789.845 631.387ZM748.285 554.514H830.319V523.82H748.285V554.514Z" fill="#020001"/>
<path d="M360 625.955V452.109H541.723C607.458 452.109 633.264 470.037 633.264 516.215C633.264 570.27 610.99 587.926 541.723 588.47H457.788V625.955H360ZM457.788 533.871H522.709V510.239H457.788V533.871Z" fill="#020001"/>
<path d="M1348.43 631.694C1342.97 623.702 1338.33 614.929 1334.53 605.376C1330.73 595.822 1327.82 585.566 1325.81 574.608C1323.8 563.618 1322.79 552.114 1322.79 540.094C1322.79 528.011 1323.8 516.46 1325.81 505.439C1327.82 494.418 1330.73 484.131 1334.53 474.578C1338.36 464.993 1343 456.236 1348.43 448.306H1364.65C1358.99 457.859 1354.44 467.366 1350.98 476.826C1347.55 486.285 1345.04 496.151 1343.44 506.422C1341.87 516.663 1341.08 527.886 1341.08 540.094C1341.08 552.176 1341.87 563.337 1343.44 573.578C1345.04 583.787 1347.55 593.621 1350.98 603.081C1354.44 612.541 1358.99 622.078 1364.65 631.694H1348.43Z" fill="#020001"/>
<path d="M1506.15 549.902C1502.13 548.043 1497.91 546.086 1494.87 544.227C1490.45 541.584 1490.35 540.606 1490.35 540.508C1490.35 540.508 1490.35 539.432 1494.87 536.789C1497.91 535.028 1502.13 533.071 1506.15 531.114C1517.63 525.732 1524.01 522.503 1523.02 518.784C1521.95 514.968 1514.59 515.359 1501.64 516.338C1497.32 516.729 1492.9 517.023 1489.47 517.023C1484.47 517.023 1483.78 516.24 1483.78 516.142C1483.78 516.142 1483.39 515.163 1485.84 510.76C1487.61 507.726 1490.16 504.106 1492.61 500.485C1499.87 490.015 1503.89 483.85 1501.15 481.11C1498.4 478.37 1492.22 482.284 1481.62 489.525C1477.99 491.972 1474.26 494.516 1471.32 496.278C1466.9 498.724 1465.92 498.332 1465.92 498.332C1465.92 498.332 1465.04 497.648 1465.04 492.657C1465.04 489.232 1465.43 484.828 1465.73 480.621C1466.81 467.704 1467.2 460.462 1463.27 459.386C1459.55 458.407 1456.31 464.768 1450.81 476.119C1448.95 480.131 1446.89 484.241 1445.12 487.373C1442.47 491.776 1441.49 491.874 1441.4 491.874C1441.4 491.874 1440.32 491.874 1437.67 487.373C1435.9 484.339 1433.84 480.131 1431.98 476.119C1426.58 464.768 1423.34 458.309 1419.52 459.386C1415.59 460.462 1416.08 467.704 1417.06 480.621C1417.46 484.926 1417.75 489.33 1417.75 492.657C1417.75 497.648 1416.87 498.332 1416.87 498.332C1416.87 498.332 1415.89 498.724 1411.47 496.278C1408.43 494.516 1404.7 491.972 1401.17 489.525C1390.57 482.284 1384.49 478.272 1381.65 481.11C1378.8 483.948 1382.82 490.015 1390.18 500.485C1392.63 504.106 1395.19 507.726 1396.95 510.76C1399.5 515.163 1399.01 516.142 1399.01 516.142C1399.01 516.142 1398.32 517.023 1393.32 517.023C1389.89 517.023 1385.47 516.631 1381.16 516.338C1368.2 515.261 1360.85 514.87 1359.77 518.784C1358.79 522.503 1365.16 525.732 1376.64 531.114C1380.66 532.973 1384.88 534.93 1387.92 536.789C1392.34 539.432 1392.44 540.41 1392.44 540.508C1392.44 540.508 1392.44 541.584 1387.92 544.227C1384.88 545.988 1380.66 547.945 1376.64 549.902C1365.16 555.284 1358.79 558.513 1359.77 562.232C1360.85 566.146 1368.2 565.657 1381.16 564.678C1385.37 564.287 1389.79 563.993 1393.22 563.993C1393.22 563.993 1393.22 563.993 1393.32 563.993C1398.32 563.993 1399.01 564.776 1399.01 564.874C1399.01 564.874 1399.4 565.853 1396.95 570.256C1395.19 573.29 1392.63 576.91 1390.18 580.531C1382.92 591.001 1378.9 597.166 1381.65 599.906C1384.49 602.646 1390.57 598.732 1401.17 591.49C1404.8 589.044 1408.53 586.5 1411.47 584.739C1415.89 582.195 1416.87 582.684 1416.87 582.684C1416.87 582.684 1417.75 583.369 1417.75 588.359C1417.75 591.784 1417.36 596.188 1417.06 600.395C1415.98 613.312 1415.59 620.554 1419.52 621.63C1419.81 621.63 1420.01 621.728 1420.3 621.728C1423.74 621.728 1426.88 615.465 1431.98 604.799C1433.84 600.787 1435.9 596.677 1437.67 593.546C1440.32 589.142 1441.3 589.044 1441.4 589.044C1441.4 589.044 1442.47 589.044 1445.12 593.546C1446.89 596.579 1448.95 600.787 1450.81 604.799C1456.21 616.15 1459.45 622.609 1463.27 621.532C1467.2 620.456 1466.71 613.215 1465.73 600.298C1465.33 595.992 1465.04 591.588 1465.04 588.261C1465.04 583.271 1465.92 582.586 1465.92 582.586C1465.92 582.586 1466.9 582.194 1471.32 584.641C1474.36 586.402 1478.09 588.946 1481.62 591.393C1489.86 597.068 1495.46 600.689 1498.79 600.689C1499.77 600.689 1500.46 600.395 1501.15 599.808C1503.99 597.068 1499.97 590.904 1492.61 580.433C1490.16 576.812 1487.61 573.192 1485.84 570.158C1483.29 565.755 1483.78 564.776 1483.78 564.776C1483.78 564.776 1484.47 563.896 1489.47 563.896H1489.57C1493 563.896 1497.42 564.287 1501.64 564.58C1514.59 565.657 1521.95 566.048 1523.02 562.134C1524.01 558.415 1517.63 555.186 1506.15 549.804V549.902Z" fill="#020001"/>
<path d="M1534.36 631.694C1539.82 623.702 1544.46 614.929 1548.26 605.376C1552.06 595.822 1554.97 585.566 1556.98 574.608C1558.99 563.618 1560 552.114 1560 540.094C1560 528.011 1558.99 516.46 1556.98 505.439C1554.97 494.418 1552.06 484.131 1548.26 474.578C1544.43 464.993 1539.79 456.236 1534.36 448.306H1518.14C1523.8 457.859 1528.35 467.366 1531.81 476.826C1535.24 486.285 1537.75 496.151 1539.35 506.422C1540.92 516.663 1541.71 527.886 1541.71 540.094C1541.71 552.176 1540.92 563.337 1539.35 573.578C1537.75 583.787 1535.24 593.621 1531.81 603.081C1528.35 612.541 1523.8 622.078 1518.14 631.694H1534.36Z" fill="#020001"/>
</svg>
